<svg xmlns="http://www.w3.org/2000/svg" width="320" height="480" viewBox="0 0 320 480"><g fill="#f2f2f2" stroke-miterlimit="10"><path d="M308 478H12a9.935 9.935 0 01-7.071-2.929A9.935 9.935 0 012 468V43.505L43.505 2H308a9.936 9.936 0 017.071 2.93 9.934 9.934 0 012.93 7.07v456a9.934 9.934 0 01-2.93 7.071A9.936 9.936 0 01308 478z"/><path d="M308 476a7.949 7.949 0 005.657-2.343A7.947 7.947 0 00316 468V12a7.947 7.947 0 00-2.343-5.657A7.949 7.949 0 00308 4H44.333L4 44.333V468c0 2.137.832 4.146 2.343 5.657A7.948 7.948 0 0012 476h296m0 4H12a11.922 11.922 0 01-8.485-3.515A11.921 11.921 0 010 468V42.676L42.676 0H308c3.205 0 6.219 1.248 8.485 3.515A11.921 11.921 0 01320 12v456a11.92 11.92 0 01-3.515 8.485A11.923 11.923 0 01308 480z" fill="currentColor"/></g></svg>